<svg xmlns="http://www.w3.org/2000/svg" viewBox="0 0 120 120" fill="none">
  <circle cx="60" cy="60" r="58" fill="#0c4a6e"/>
  <circle cx="60" cy="60" r="48" fill="#082f49"/>
  <g transform="translate(60,60)">
    <circle r="22" fill="#f59e0b"/>
    <circle r="18" fill="#fbbf24"/>
    <g stroke="#f59e0b" stroke-width="3" stroke-linecap="round">
      <line x1="0" y1="-32" x2="0" y2="-26"/>
      <line x1="0" y1="26" x2="0" y2="32"/>
      <line x1="-32" y1="0" x2="-26" y2="0"/>
      <line x1="26" y1="0" x2="32" y2="0"/>
      <line x1="-22.6" y1="-22.6" x2="-18.4" y2="-18.4"/>
      <line x1="18.4" y1="18.4" x2="22.6" y2="22.6"/>
      <line x1="22.6" y1="-22.6" x2="18.4" y2="-18.4"/>
      <line x1="-18.4" y1="18.4" x2="-22.6" y2="22.6"/>
    </g>
  </g>
  <path d="M20 95 L40 75 L60 85 L80 65 L100 80" stroke="#059669" stroke-width="3" fill="none" stroke-linecap="round" stroke-linejoin="round"/>
  <circle cx="40" cy="75" r="3" fill="#059669"/>
  <circle cx="60" cy="85" r="3" fill="#059669"/>
  <circle cx="80" cy="65" r="3" fill="#059669"/>
</svg>
